<?xml version="1.0" encoding="UTF-8"?>
<svg id="Lager_1" xmlns="http://www.w3.org/2000/svg" version="1.1" viewBox="0 0 259.45 205.45">
  <!-- Generator: Adobe Illustrator 30.0.0, SVG Export Plug-In . SVG Version: 2.1.1 Build 123)  -->
  <defs>
    <style>
      .st0 {
        fill: #1d1d1b;
      }
    </style>
  </defs>
  <path class="st0" d="M129.72,44.02c-2.76,0-5-2.24-5-5V5C124.72,2.24,126.96,0,129.72,0s5,2.24,5,5v34.02c0,2.76-2.24,5-5,5Z"/>
  <path class="st0" d="M193.87,70.58c-1.28,0-2.56-.49-3.54-1.46-1.95-1.95-1.95-5.12,0-7.07l24.05-24.05c1.95-1.95,5.12-1.95,7.07,0,1.95,1.95,1.95,5.12,0,7.07l-24.05,24.05c-.98.98-2.26,1.46-3.54,1.46Z"/>
  <path class="st0" d="M254.45,134.72h-34.02c-2.76,0-5-2.24-5-5s2.24-5,5-5h34.02c2.76,0,5,2.24,5,5s-2.24,5-5,5Z"/>
  <path class="st0" d="M39.02,134.72H5c-2.76,0-5-2.24-5-5s2.24-5,5-5h34.02c2.76,0,5,2.24,5,5s-2.24,5-5,5Z"/>
  <path class="st0" d="M65.58,70.58c-1.28,0-2.56-.49-3.54-1.46l-24.05-24.05c-1.95-1.95-1.95-5.12,0-7.07,1.95-1.95,5.12-1.95,7.07,0l24.05,24.05c1.95,1.95,1.95,5.12,0,7.07-.98.98-2.26,1.46-3.54,1.46Z"/>
  <path class="st0" d="M189.25,205.45h-119.05c-2.76,0-5-2.24-5-5s2.24-5,5-5h119.05c2.76,0,5,2.24,5,5s-2.24,5-5,5Z"/>
  <path class="st0" d="M248.78,172.77h-56.58c8.69-12.59,13.39-27.54,13.39-43.05,0-41.83-34.04-75.87-75.87-75.87s-75.87,34.04-75.87,75.87c0,15.51,4.7,30.46,13.39,43.05H10.67c-2.76,0-5,2.24-5,5s2.24,5,5,5h238.11c2.76,0,5-2.24,5-5s-2.24-5-5-5ZM95.71,137.44l34.02-58.9,34.01,58.9h-26v35.33h-16v-35.33h-26.03Z"/>
</svg>